<svg width="30" height="30" xmlns="http://www.w3.org/2000/svg"><path d="M8.999 10.824v14.175H4.272V10.824H9zm.3-4.378c.015 1.359-1.016 2.446-2.664 2.446h-.028C5.017 8.892 4 7.805 4 6.446 4 5.058 5.06 4 6.664 4c1.619 0 2.62 1.058 2.635 2.446zM26 16.874V25h-4.713v-7.58c0-1.903-.687-3.205-2.391-3.205-1.304 0-2.077.872-2.421 1.716-.115.315-.158.73-.158 1.16V25h-4.712c.057-12.845 0-14.175 0-14.175h4.712v2.06h-.028c.616-.973 1.733-2.389 4.282-2.389 3.109 0 5.429 2.032 5.429 6.38v-.002z" fill="#EA7E73" fill-rule="nonzero"/></svg>