<svg width="30" height="30" xmlns="http://www.w3.org/2000/svg"><path d="M2 15.817c0 1.17.11 2.23.33 3.177.22.948.526 1.772.916 2.47.39.7.886 1.315 1.487 1.845.602.53 1.255.964 1.958 1.301.704.337 1.507.61 2.41.822.902.21 1.824.357 2.765.442.941.084 1.975.126 3.102.126 1.136 0 2.175-.042 3.115-.126.941-.085 1.865-.232 2.772-.442.907-.211 1.714-.485 2.422-.822a8.606 8.606 0 0 0 1.97-1.301 7.008 7.008 0 0 0 1.5-1.845c.395-.698.702-1.522.922-2.47.22-.947.331-2.006.331-3.177 0-2.088-.704-3.895-2.11-5.42.075-.202.145-.432.21-.688.063-.257.122-.624.177-1.1.056-.476.035-1.025-.063-1.648a8.612 8.612 0 0 0-.541-1.908l-.19-.038c-.136-.025-.358-.02-.668.019-.31.038-.67.114-1.08.227-.412.114-.941.333-1.59.658-.648.323-1.332.73-2.053 1.219-1.237-.338-2.937-.506-5.098-.506-2.154 0-3.848.168-5.086.506a17.485 17.485 0 0 0-2.066-1.22c-.657-.324-1.18-.543-1.57-.657a6.086 6.086 0 0 0-1.094-.22c-.338-.035-.553-.045-.641-.032-.09.013-.16.027-.21.044a8.552 8.552 0 0 0-.54 1.908c-.098.623-.119 1.172-.064 1.649.055.475.114.842.177 1.099.065.256.135.486.21.688C2.705 11.922 2 13.73 2 15.817zm3.191 3.17c0-1.212.555-2.324 1.666-3.334.33-.303.716-.533 1.156-.69.441-.154.94-.243 1.495-.264a16.569 16.569 0 0 1 1.595.013c.509.029 1.136.07 1.882.12.746.05 1.39.075 1.932.075.543 0 1.187-.025 1.933-.076.746-.05 1.373-.09 1.882-.12.508-.029 1.04-.033 1.595-.012.555.021 1.054.11 1.494.265a3.34 3.34 0 0 1 1.157.689c1.11.993 1.666 2.105 1.666 3.335 0 .725-.091 1.367-.274 1.927-.182.56-.415 1.03-.699 1.409s-.678.7-1.182.966c-.505.265-.996.47-1.476.613-.478.143-1.093.255-1.843.334-.75.08-1.42.129-2.009.146-.589.017-1.337.026-2.244.026-.907 0-1.655-.01-2.244-.026a26.31 26.31 0 0 1-2.008-.146c-.75-.08-1.365-.19-1.844-.334a8.356 8.356 0 0 1-1.475-.613c-.504-.265-.898-.587-1.182-.966-.284-.38-.518-.849-.7-1.409-.182-.56-.273-1.202-.273-1.927zm13.059-.253c0 1.337.728 2.422 1.625 2.422S21.5 20.07 21.5 18.734c0-1.338-.728-2.423-1.625-2.423s-1.625 1.085-1.625 2.423zm-9.75 0c0 1.337.728 2.422 1.625 2.422s1.625-1.085 1.625-2.422c0-.866-.31-1.665-.813-2.098-.502-.433-1.122-.433-1.624 0-.503.433-.813 1.232-.813 2.098z" fill="#EA7E73" fill-rule="nonzero"/></svg>