<svg width="160" height="48" xmlns="http://www.w3.org/2000/svg" xmlns:xlink="http://www.w3.org/1999/xlink"><defs><path id="a" d="M43.987 27.923V.206H.109v27.717h43.878z"/></defs><g fill="none" fill-rule="evenodd"><path d="M68.016 5.22c.264 0 .477.087.639.261.162.174.243.399.243.675v10.998c0 .276-.084.501-.252.675a.861.861 0 0 1-.648.261c-.312 0-.552-.12-.72-.36l-7.056-9.306v8.73c0 .276-.081.501-.243.675a.832.832 0 0 1-.639.261c-.264 0-.474-.084-.63-.252-.156-.168-.234-.396-.234-.684V6.156c0-.276.084-.501.252-.675a.861.861 0 0 1 .648-.261c.312 0 .552.12.72.36l7.056 9.324V6.156c0-.276.078-.501.234-.675.156-.174.366-.261.63-.261zm4.536 12.87a.996.996 0 0 1-.657-.216c-.174-.144-.261-.36-.261-.648V9.918c0-.288.087-.507.261-.657a.97.97 0 0 1 .657-.225c.264 0 .48.075.648.225.168.15.252.369.252.657v7.308c0 .288-.084.504-.252.648-.168.144-.384.216-.648.216zm0-10.818c-.348 0-.624-.096-.828-.288-.204-.192-.306-.444-.306-.756s.102-.561.306-.747c.204-.186.48-.279.828-.279.336 0 .609.093.819.279.21.186.315.435.315.747s-.102.564-.306.756c-.204.192-.48.288-.828.288zm7.2 10.854c-.852 0-1.599-.186-2.241-.558a3.81 3.81 0 0 1-1.494-1.584c-.354-.684-.531-1.476-.531-2.376 0-.912.183-1.716.549-2.412a3.968 3.968 0 0 1 1.539-1.62C78.234 9.192 78.99 9 79.842 9c.456 0 .915.066 1.377.198.462.132.873.312 1.233.54.384.264.576.57.576.918a.807.807 0 0 1-.162.513.503.503 0 0 1-.414.207.719.719 0 0 1-.324-.081 4.673 4.673 0 0 1-.414-.243 4.96 4.96 0 0 0-.837-.441 2.52 2.52 0 0 0-.927-.153c-.816 0-1.449.276-1.899.828-.45.552-.675 1.32-.675 2.304 0 .984.222 1.743.666 2.277.444.534 1.074.801 1.89.801.36 0 .678-.054.954-.162.276-.108.558-.252.846-.432.132-.084.264-.156.396-.216a.881.881 0 0 1 .36-.09c.168 0 .306.069.414.207a.807.807 0 0 1 .162.513.823.823 0 0 1-.135.459c-.09.138-.243.279-.459.423-.36.24-.78.426-1.26.558-.48.132-.966.198-1.458.198zm11.808-2.34c.168 0 .306.066.414.198a.77.77 0 0 1 .162.504c0 .348-.216.642-.648.882a5.71 5.71 0 0 1-1.377.558 5.583 5.583 0 0 1-1.431.198c-1.392 0-2.49-.405-3.294-1.215-.804-.81-1.206-1.917-1.206-3.321 0-.9.177-1.698.531-2.394a3.904 3.904 0 0 1 1.494-1.62C86.847 9.192 87.576 9 88.392 9c1.176 0 2.106.378 2.79 1.134.684.756 1.026 1.776 1.026 3.06 0 .48-.216.72-.648.72h-5.562c.12 1.86 1.014 2.79 2.682 2.79.444 0 .828-.06 1.152-.18.324-.12.666-.276 1.026-.468.036-.024.135-.075.297-.153a.983.983 0 0 1 .405-.117zm-3.132-5.454c-.696 0-1.254.222-1.674.666-.42.444-.672 1.068-.756 1.872h4.644c-.036-.816-.243-1.443-.621-1.881-.378-.438-.909-.657-1.593-.657zM62.562 40.704c.264.024.453.093.567.207.114.114.171.273.171.477 0 .24-.093.423-.279.549-.186.126-.459.177-.819.153l-.486-.036c-.972-.072-1.698-.369-2.178-.891s-.72-1.293-.72-2.313v-4.23h-1.08c-.528 0-.792-.234-.792-.702a.66.66 0 0 1 .207-.513c.138-.126.333-.189.585-.189h1.08v-1.854c0-.276.081-.492.243-.648.162-.156.381-.234.657-.234s.498.078.666.234c.168.156.252.372.252.648v1.854h1.782c.252 0 .447.063.585.189a.66.66 0 0 1 .207.513c0 .228-.069.402-.207.522-.138.12-.333.18-.585.18h-1.782v4.356c0 .564.117.978.351 1.242.234.264.591.414 1.071.45l.504.036zm5.868 1.422c-.864 0-1.623-.186-2.277-.558a3.765 3.765 0 0 1-1.512-1.593c-.354-.69-.531-1.491-.531-2.403 0-.924.177-1.731.531-2.421a3.765 3.765 0 0 1 1.512-1.593c.654-.372 1.413-.558 2.277-.558.864 0 1.623.186 2.277.558a3.765 3.765 0 0 1 1.512 1.593c.354.69.531 1.497.531 2.421 0 .912-.177 1.713-.531 2.403a3.765 3.765 0 0 1-1.512 1.593c-.654.372-1.413.558-2.277.558zm0-1.44c.804 0 1.419-.264 1.845-.792.426-.528.639-1.302.639-2.322 0-1.008-.216-1.779-.648-2.313-.432-.534-1.044-.801-1.836-.801s-1.404.267-1.836.801c-.432.534-.648 1.305-.648 2.313 0 1.02.213 1.794.639 2.322.426.528 1.041.792 1.845.792zM89.598 33c1.968 0 2.952 1.182 2.952 3.546v4.68c0 .276-.084.489-.252.639-.168.15-.39.225-.666.225-.264 0-.48-.075-.648-.225-.168-.15-.252-.363-.252-.639v-4.662c0-.732-.132-1.263-.396-1.593-.264-.33-.678-.495-1.242-.495-.66 0-1.182.225-1.566.675-.384.45-.576 1.065-.576 1.845v4.23c0 .276-.084.489-.252.639-.168.15-.39.225-.666.225-.264 0-.48-.075-.648-.225-.168-.15-.252-.363-.252-.639v-4.662c0-.732-.132-1.263-.396-1.593-.264-.33-.678-.495-1.242-.495-.66 0-1.185.225-1.575.675-.39.45-.585 1.065-.585 1.845v4.23c0 .276-.084.489-.252.639-.168.15-.384.225-.648.225a.97.97 0 0 1-.657-.225c-.174-.15-.261-.363-.261-.639V33.9c0-.264.09-.474.27-.63a.956.956 0 0 1 .648-.234c.252 0 .459.075.621.225.162.15.243.357.243.621v.666c.264-.504.63-.888 1.098-1.152.468-.264 1.008-.396 1.62-.396.672 0 1.227.138 1.665.414.438.276.765.702.981 1.278a3.003 3.003 0 0 1 1.17-1.233c.516-.306 1.104-.459 1.764-.459zm12.312 6.786c.168 0 .306.066.414.198a.77.77 0 0 1 .162.504c0 .348-.216.642-.648.882a5.71 5.71 0 0 1-1.377.558 5.583 5.583 0 0 1-1.431.198c-1.392 0-2.49-.405-3.294-1.215-.804-.81-1.206-1.917-1.206-3.321 0-.9.177-1.698.531-2.394a3.904 3.904 0 0 1 1.494-1.62c.642-.384 1.371-.576 2.187-.576 1.176 0 2.106.378 2.79 1.134.684.756 1.026 1.776 1.026 3.06 0 .48-.216.72-.648.72h-5.562c.12 1.86 1.014 2.79 2.682 2.79.444 0 .828-.06 1.152-.18.324-.12.666-.276 1.026-.468.036-.024.135-.075.297-.153a.983.983 0 0 1 .405-.117zm-3.132-5.454c-.696 0-1.254.222-1.674.666-.42.444-.672 1.068-.756 1.872h4.644c-.036-.816-.243-1.443-.621-1.881-.378-.438-.909-.657-1.593-.657zm12.654 5.454c.168 0 .306.066.414.198a.77.77 0 0 1 .162.504c0 .348-.216.642-.648.882a5.71 5.71 0 0 1-1.377.558 5.583 5.583 0 0 1-1.431.198c-1.392 0-2.49-.405-3.294-1.215-.804-.81-1.206-1.917-1.206-3.321 0-.9.177-1.698.531-2.394a3.904 3.904 0 0 1 1.494-1.62c.642-.384 1.371-.576 2.187-.576 1.176 0 2.106.378 2.79 1.134.684.756 1.026 1.776 1.026 3.06 0 .48-.216.72-.648.72h-5.562c.12 1.86 1.014 2.79 2.682 2.79.444 0 .828-.06 1.152-.18.324-.12.666-.276 1.026-.468.036-.024.135-.075.297-.153a.983.983 0 0 1 .405-.117zm-3.132-5.454c-.696 0-1.254.222-1.674.666-.42.444-.672 1.068-.756 1.872h4.644c-.036-.816-.243-1.443-.621-1.881-.378-.438-.909-.657-1.593-.657zm10.08 6.372c.264.024.453.093.567.207.114.114.171.273.171.477 0 .24-.093.423-.279.549-.186.126-.459.177-.819.153l-.486-.036c-.972-.072-1.698-.369-2.178-.891s-.72-1.293-.72-2.313v-4.23h-1.08c-.528 0-.792-.234-.792-.702a.66.66 0 0 1 .207-.513c.138-.126.333-.189.585-.189h1.08v-1.854c0-.276.081-.492.243-.648.162-.156.381-.234.657-.234s.498.078.666.234c.168.156.252.372.252.648v1.854h1.782c.252 0 .447.063.585.189a.66.66 0 0 1 .207.513c0 .228-.069.402-.207.522-.138.12-.333.18-.585.18h-1.782v4.356c0 .564.117.978.351 1.242.234.264.591.414 1.071.45l.504.036zm13.05-7.128a.785.785 0 0 1 .756-.522c.228 0 .429.078.603.234a.725.725 0 0 1 .261.558c0 .12-.024.234-.072.342l-5.004 10.62a.845.845 0 0 1-.315.387.793.793 0 0 1-.441.135.894.894 0 0 1-.585-.216.673.673 0 0 1-.261-.54.98.98 0 0 1 .09-.36l1.242-2.646-3.474-7.38a.714.714 0 0 1-.072-.324c0-.228.096-.42.288-.576.192-.156.408-.234.648-.234.36 0 .618.168.774.504l2.79 6.192 2.772-6.174zm6.93 8.55c-.864 0-1.623-.186-2.277-.558a3.765 3.765 0 0 1-1.512-1.593c-.354-.69-.531-1.491-.531-2.403 0-.924.177-1.731.531-2.421a3.765 3.765 0 0 1 1.512-1.593c.654-.372 1.413-.558 2.277-.558.864 0 1.623.186 2.277.558a3.765 3.765 0 0 1 1.512 1.593c.354.69.531 1.497.531 2.421 0 .912-.177 1.713-.531 2.403a3.765 3.765 0 0 1-1.512 1.593c-.654.372-1.413.558-2.277.558zm0-1.44c.804 0 1.419-.264 1.845-.792.426-.528.639-1.302.639-2.322 0-1.008-.216-1.779-.648-2.313-.432-.534-1.044-.801-1.836-.801s-1.404.267-1.836.801c-.432.534-.648 1.305-.648 2.313 0 1.02.213 1.794.639 2.322.426.528 1.041.792 1.845.792zm13.14-7.65c.276 0 .495.078.657.234.162.156.243.372.243.648v7.326a.796.796 0 0 1-.252.612c-.168.156-.39.234-.666.234-.252 0-.456-.075-.612-.225-.156-.15-.234-.351-.234-.603v-.684a2.819 2.819 0 0 1-1.143 1.152 3.357 3.357 0 0 1-1.629.396c-2.136 0-3.204-1.176-3.204-3.528v-4.68c0-.276.081-.492.243-.648.162-.156.387-.234.675-.234.276 0 .495.078.657.234.162.156.243.372.243.648v4.662c0 .708.144 1.23.432 1.566.288.336.732.504 1.332.504.708 0 1.275-.228 1.701-.684.426-.456.639-1.062.639-1.818v-4.23c0-.264.084-.477.252-.639.168-.162.39-.243.666-.243z" fill="#474747"/><g transform="translate(2.808 .602)"><mask id="b" fill="#fff"><use xlink:href="#a"/></mask><path fill="#61C8E0" mask="url(#b)" d="M43.987 27.923V.206H.109l27.72 27.717z"/></g><path fill="#EA7E73" d="M1 16.173h13.447L1 2.726z"/><path fill="#FFA48F" d="M17.16 18.885H1.001v27.717h43.876z"/><path fill="#73E5C5" d="M33.346 31.237l13.448 13.448V31.237z"/></g></svg>