<svg width="160" height="48" xmlns="http://www.w3.org/2000/svg" xmlns:xlink="http://www.w3.org/1999/xlink"><defs><path id="a" d="M43.987 27.923V.206H.109v27.717h43.878z"/></defs><g fill="none" fill-rule="evenodd"><g transform="translate(2.808 .602)"><mask id="b" fill="#fff"><use xlink:href="#a"/></mask><path fill="#61C8E0" mask="url(#b)" d="M43.987 27.923V.206H.109l27.72 27.717z"/></g><path fill="#EA7E73" d="M1 16.173h13.447L1 2.726z"/><path fill="#FFA48F" d="M17.16 18.885H1.001v27.717h43.876z"/><path fill="#73E5C5" d="M33.346 31.237l13.448 13.448V31.237z"/><path d="M69.672 16.92a.98.98 0 0 1 .09.36c0 .228-.093.42-.279.576a.943.943 0 0 1-.621.234.793.793 0 0 1-.441-.135.845.845 0 0 1-.315-.387l-1.188-2.7H60.33l-1.188 2.7a.826.826 0 0 1-.324.387.837.837 0 0 1-.45.135.966.966 0 0 1-.639-.234.724.724 0 0 1-.279-.576.98.98 0 0 1 .09-.36l5.076-11.106a.95.95 0 0 1 .405-.45c.186-.108.381-.162.585-.162.204 0 .399.054.585.162a.95.95 0 0 1 .405.45l5.076 11.106zm-8.676-3.528h5.274l-2.646-5.958-2.628 5.958zM76.206 9c2.1 0 3.15 1.182 3.15 3.546v4.68c0 .276-.081.489-.243.639-.162.15-.387.225-.675.225-.276 0-.495-.078-.657-.234-.162-.156-.243-.366-.243-.63v-4.59c0-.744-.147-1.29-.441-1.638-.294-.348-.753-.522-1.377-.522-.732 0-1.32.228-1.764.684-.444.456-.666 1.068-.666 1.836v4.23c0 .264-.081.474-.243.63-.162.156-.381.234-.657.234s-.498-.078-.666-.234c-.168-.156-.252-.366-.252-.63V9.9c0-.252.087-.459.261-.621a.927.927 0 0 1 .657-.243c.264 0 .474.078.63.234.156.156.234.36.234.612v.738a2.92 2.92 0 0 1 1.206-1.206C74.976 9.138 75.558 9 76.206 9zm10.368 0c2.1 0 3.15 1.182 3.15 3.546v4.68c0 .276-.081.489-.243.639-.162.15-.387.225-.675.225-.276 0-.495-.078-.657-.234-.162-.156-.243-.366-.243-.63v-4.59c0-.744-.147-1.29-.441-1.638-.294-.348-.753-.522-1.377-.522-.732 0-1.32.228-1.764.684-.444.456-.666 1.068-.666 1.836v4.23c0 .264-.081.474-.243.63-.162.156-.381.234-.657.234s-.498-.078-.666-.234c-.168-.156-.252-.366-.252-.63V9.9c0-.252.087-.459.261-.621a.927.927 0 0 1 .657-.243c.264 0 .474.078.63.234.156.156.234.36.234.612v.738a2.92 2.92 0 0 1 1.206-1.206C85.344 9.138 85.926 9 86.574 9zm9.324 0c1.164 0 2.031.294 2.601.882.57.588.855 1.482.855 2.682v4.662c0 .276-.078.489-.234.639-.156.15-.372.225-.648.225-.264 0-.474-.078-.63-.234-.156-.156-.234-.366-.234-.63v-.666a2.532 2.532 0 0 1-1.017 1.161c-.45.27-.975.405-1.575.405a3.566 3.566 0 0 1-1.584-.351 2.72 2.72 0 0 1-1.125-.981 2.542 2.542 0 0 1-.405-1.404c0-.636.165-1.137.495-1.503.33-.366.876-.627 1.638-.783.762-.156 1.809-.234 3.141-.234h.414v-.522c0-.672-.138-1.158-.414-1.458-.276-.3-.72-.45-1.332-.45-.42 0-.816.054-1.188.162-.372.108-.78.264-1.224.468-.324.18-.552.27-.684.27a.556.556 0 0 1-.441-.198.744.744 0 0 1-.171-.504c0-.18.051-.339.153-.477.102-.138.267-.273.495-.405.42-.228.912-.411 1.476-.549A6.884 6.884 0 0 1 95.898 9zm-.558 7.776c.66 0 1.2-.225 1.62-.675.42-.45.63-1.029.63-1.737v-.468h-.324c-.936 0-1.656.042-2.16.126-.504.084-.864.225-1.08.423-.216.198-.324.483-.324.855 0 .432.156.786.468 1.062.312.276.702.414 1.17.414zM111 18.144a8.825 8.825 0 0 1-2.601-.378c-.822-.252-1.479-.6-1.971-1.044a.921.921 0 0 1-.342-.738c0-.216.06-.399.18-.549a.538.538 0 0 1 .432-.225c.168 0 .372.078.612.234 1.068.792 2.286 1.188 3.654 1.188.96 0 1.698-.18 2.214-.54.516-.36.774-.876.774-1.548 0-.528-.24-.924-.72-1.188-.48-.264-1.248-.516-2.304-.756-1.008-.216-1.836-.462-2.484-.738-.648-.276-1.155-.651-1.521-1.125-.366-.474-.549-1.077-.549-1.809s.201-1.383.603-1.953c.402-.57.963-1.014 1.683-1.332.72-.318 1.542-.477 2.466-.477.852 0 1.638.12 2.358.36.72.24 1.332.594 1.836 1.062.24.204.36.45.36.738a.835.835 0 0 1-.189.54c-.126.156-.273.234-.441.234-.156 0-.354-.078-.594-.234-.552-.42-1.071-.723-1.557-.909-.486-.186-1.071-.279-1.755-.279-.924 0-1.644.189-2.16.567-.516.378-.774.903-.774 1.575 0 .576.228 1.011.684 1.305.456.294 1.188.561 2.196.801 1.056.24 1.911.489 2.565.747.654.258 1.176.612 1.566 1.062.39.45.585 1.029.585 1.737 0 .72-.201 1.359-.603 1.917-.402.558-.966.99-1.692 1.296-.726.306-1.563.459-2.511.459zm13.68-9.108c.276 0 .495.078.657.234.162.156.243.372.243.648v7.326a.796.796 0 0 1-.252.612c-.168.156-.39.234-.666.234-.252 0-.456-.075-.612-.225-.156-.15-.234-.351-.234-.603v-.684a2.819 2.819 0 0 1-1.143 1.152 3.357 3.357 0 0 1-1.629.396c-2.136 0-3.204-1.176-3.204-3.528v-4.68c0-.276.081-.492.243-.648.162-.156.387-.234.675-.234.276 0 .495.078.657.234.162.156.243.372.243.648v4.662c0 .708.144 1.23.432 1.566.288.336.732.504 1.332.504.708 0 1.275-.228 1.701-.684.426-.456.639-1.062.639-1.818v-4.23c0-.264.084-.477.252-.639.168-.162.39-.243.666-.243zm4.284-3.816c.36 0 .645.132.855.396.21.264.315.654.315 1.17 0 1.02-.342 1.902-1.026 2.646-.144.144-.3.216-.468.216a.555.555 0 0 1-.396-.153.49.49 0 0 1-.162-.369.56.56 0 0 1 .162-.378 2.44 2.44 0 0 0 .648-1.242 1.13 1.13 0 0 1-.747-.342 1.066 1.066 0 0 1-.297-.774c0-.336.108-.615.324-.837.216-.222.48-.333.792-.333zm6.498 12.906c-1.224 0-2.226-.252-3.006-.756-.216-.132-.369-.27-.459-.414a.898.898 0 0 1-.135-.486c0-.192.054-.354.162-.486a.511.511 0 0 1 .414-.198c.156 0 .402.096.738.288.36.192.711.348 1.053.468.342.12.771.18 1.287.18.576 0 1.026-.102 1.35-.306.324-.204.486-.492.486-.864 0-.24-.063-.432-.189-.576-.126-.144-.345-.273-.657-.387-.312-.114-.774-.237-1.386-.369-1.056-.228-1.815-.537-2.277-.927-.462-.39-.693-.921-.693-1.593 0-.516.15-.981.45-1.395.3-.414.714-.735 1.242-.963.528-.228 1.128-.342 1.8-.342.48 0 .948.063 1.404.189.456.126.858.309 1.206.549.396.264.594.57.594.918a.718.718 0 0 1-.171.486.52.52 0 0 1-.405.198.792.792 0 0 1-.324-.072 4.275 4.275 0 0 1-.432-.234 6.046 6.046 0 0 0-.909-.45c-.282-.108-.633-.162-1.053-.162-.504 0-.909.108-1.215.324-.306.216-.459.51-.459.882 0 .336.141.597.423.783.282.186.813.363 1.593.531.804.168 1.434.36 1.89.576.456.216.783.483.981.801.198.318.297.723.297 1.215 0 .78-.327 1.407-.981 1.881-.654.474-1.527.711-2.619.711zM62.994 33c2.1 0 3.15 1.182 3.15 3.546v4.68c0 .276-.081.489-.243.639-.162.15-.387.225-.675.225-.276 0-.495-.078-.657-.234-.162-.156-.243-.366-.243-.63v-4.59c0-.744-.147-1.29-.441-1.638-.294-.348-.753-.522-1.377-.522-.732 0-1.32.228-1.764.684-.444.456-.666 1.068-.666 1.836v4.23c0 .264-.081.474-.243.63-.162.156-.381.234-.657.234s-.498-.078-.666-.234c-.168-.156-.252-.366-.252-.63V33.9c0-.252.087-.459.261-.621a.927.927 0 0 1 .657-.243c.264 0 .474.078.63.234.156.156.234.36.234.612v.738a2.92 2.92 0 0 1 1.206-1.206c.516-.276 1.098-.414 1.746-.414zm9.45 9.126c-.864 0-1.623-.186-2.277-.558a3.765 3.765 0 0 1-1.512-1.593c-.354-.69-.531-1.491-.531-2.403 0-.924.177-1.731.531-2.421a3.765 3.765 0 0 1 1.512-1.593c.654-.372 1.413-.558 2.277-.558.864 0 1.623.186 2.277.558a3.765 3.765 0 0 1 1.512 1.593c.354.69.531 1.497.531 2.421 0 .912-.177 1.713-.531 2.403a3.765 3.765 0 0 1-1.512 1.593c-.654.372-1.413.558-2.277.558zm0-1.44c.804 0 1.419-.264 1.845-.792.426-.528.639-1.302.639-2.322 0-1.008-.216-1.779-.648-2.313-.432-.534-1.044-.801-1.836-.801s-1.404.267-1.836.801c-.432.534-.648 1.305-.648 2.313 0 1.02.213 1.794.639 2.322.426.528 1.041.792 1.845.792zm10.638.018c.264.024.453.093.567.207.114.114.171.273.171.477 0 .24-.093.423-.279.549-.186.126-.459.177-.819.153l-.486-.036c-.972-.072-1.698-.369-2.178-.891s-.72-1.293-.72-2.313v-4.23h-1.08c-.528 0-.792-.234-.792-.702a.66.66 0 0 1 .207-.513c.138-.126.333-.189.585-.189h1.08v-1.854c0-.276.081-.492.243-.648.162-.156.381-.234.657-.234s.498.078.666.234c.168.156.252.372.252.648v1.854h1.782c.252 0 .447.063.585.189a.66.66 0 0 1 .207.513c0 .228-.069.402-.207.522-.138.12-.333.18-.585.18h-1.782v4.356c0 .564.117.978.351 1.242.234.264.591.414 1.071.45l.504.036zm8.928-.918c.168 0 .306.066.414.198a.77.77 0 0 1 .162.504c0 .348-.216.642-.648.882a5.71 5.71 0 0 1-1.377.558 5.583 5.583 0 0 1-1.431.198c-1.392 0-2.49-.405-3.294-1.215-.804-.81-1.206-1.917-1.206-3.321 0-.9.177-1.698.531-2.394a3.904 3.904 0 0 1 1.494-1.62c.642-.384 1.371-.576 2.187-.576 1.176 0 2.106.378 2.79 1.134.684.756 1.026 1.776 1.026 3.06 0 .48-.216.72-.648.72h-5.562c.12 1.86 1.014 2.79 2.682 2.79.444 0 .828-.06 1.152-.18.324-.12.666-.276 1.026-.468.036-.024.135-.075.297-.153a.983.983 0 0 1 .405-.117zm-3.132-5.454c-.696 0-1.254.222-1.674.666-.42.444-.672 1.068-.756 1.872h4.644c-.036-.816-.243-1.443-.621-1.881-.378-.438-.909-.657-1.593-.657zm8.838 7.794c-1.224 0-2.226-.252-3.006-.756-.216-.132-.369-.27-.459-.414a.898.898 0 0 1-.135-.486c0-.192.054-.354.162-.486a.511.511 0 0 1 .414-.198c.156 0 .402.096.738.288.36.192.711.348 1.053.468.342.12.771.18 1.287.18.576 0 1.026-.102 1.35-.306.324-.204.486-.492.486-.864 0-.24-.063-.432-.189-.576-.126-.144-.345-.273-.657-.387-.312-.114-.774-.237-1.386-.369-1.056-.228-1.815-.537-2.277-.927-.462-.39-.693-.921-.693-1.593 0-.516.15-.981.45-1.395.3-.414.714-.735 1.242-.963.528-.228 1.128-.342 1.8-.342.48 0 .948.063 1.404.189.456.126.858.309 1.206.549.396.264.594.57.594.918a.718.718 0 0 1-.171.486.52.52 0 0 1-.405.198.792.792 0 0 1-.324-.072 4.275 4.275 0 0 1-.432-.234 6.046 6.046 0 0 0-.909-.45c-.282-.108-.633-.162-1.053-.162-.504 0-.909.108-1.215.324-.306.216-.459.51-.459.882 0 .336.141.597.423.783.282.186.813.363 1.593.531.804.168 1.434.36 1.89.576.456.216.783.483.981.801.198.318.297.723.297 1.215 0 .78-.327 1.407-.981 1.881-.654.474-1.527.711-2.619.711z" fill="#474747"/></g></svg>